STARTFONT 2.1
FONT -Cronyx-Times-Medium-R-Normal--10-100-75-75-P-54-KOI8-R
SIZE 10 72 72
FONTBOUNDINGBOX 9 12 0 -2
STARTPROPERTIES 21
DEFAULT_CHAR 32
FONT_ASCENT 10
FONT_DESCENT 2
SPACING "P"
FONTNAME_REGISTRY ""
FOUNDRY "Cronyx"
FAMILY_NAME "Times"
WEIGHT_NAME "Medium"
SLANT "R"
SETWIDTH_NAME "Normal"
ADD_STYLE_NAME ""
AVERAGE_WIDTH 54
CHARSET_REGISTRY "KOI8"
CHARSET_ENCODING "R"
PIXEL_SIZE 10
POINT_SIZE 100
RESOLUTION_X 75
RESOLUTION_Y 75
COPYRIGHT "Copyright (C) 1990, 1991 EWT Consulting, Portions Copyright (C) 1996-1997 by Andrey A. Chernov, Moscow, Russia."
_XMBDFED_INFO "Edited with xmbdfed 3.8."
_XFREE86_GLYPH_RANGES "32_126 149 154 156_158 163 179 191_255"
ENDPROPERTIES
CHARS 167
STARTCHAR space
ENCODING 32
SWIDTH 200 0
DWIDTH 2 0
BBX 0 0 0 0
BITMAP
ENDCHAR
STARTCHAR exclam
ENCODING 33
SWIDTH 200 0
DWIDTH 2 0
BBX 1 8 1 0
BITMAP
80
80
80
80
80
80
00
80
ENDCHAR
STARTCHAR quotedbl
ENCODING 34
SWIDTH 400 0
DWIDTH 4 0
BBX 3 3 1 5
BITMAP
A0
A0
A0
ENDCHAR
STARTCHAR numbersign
ENCODING 35
SWIDTH 600 0
DWIDTH 6 0
BBX 5 8 1 0
BITMAP
50
50
F8
50
50
F8
50
50
ENDCHAR
STARTCHAR dollar
ENCODING 36
SWIDTH 400 0
DWIDTH 4 0
BBX 3 8 1 0
BITMAP
40
60
80
C0
60
20
C0
40
ENDCHAR
STARTCHAR percent
ENCODING 37
SWIDTH 800 0
DWIDTH 8 0
BBX 7 8 1 0
BITMAP
44
A8
A8
50
14
2A
2A
44
ENDCHAR
STARTCHAR ampersand
ENCODING 38
SWIDTH 700 0
DWIDTH 7 0
BBX 6 8 1 0
BITMAP
30
48
48
30
64
94
88
74
ENDCHAR
STARTCHAR quotesingle
ENCODING 39
SWIDTH 200 0
DWIDTH 2 0
BBX 1 3 1 5
BITMAP
80
80
80
ENDCHAR
STARTCHAR parenleft
ENCODING 40
SWIDTH 300 0
DWIDTH 3 0
BBX 2 10 1 -2
BITMAP
40
80
80
80
80
80
80
80
80
40
ENDCHAR
STARTCHAR parenright
ENCODING 41
SWIDTH 300 0
DWIDTH 3 0
BBX 2 10 1 -2
BITMAP
80
40
40
40
40
40
40
40
40
80
ENDCHAR
STARTCHAR asterisk
ENCODING 42
SWIDTH 400 0
DWIDTH 4 0
BBX 3 4 1 4
BITMAP
40
E0
40
A0
ENDCHAR
STARTCHAR plus
ENCODING 43
SWIDTH 500 0
DWIDTH 5 0
BBX 3 5 1 0
BITMAP
40
40
E0
40
40
ENDCHAR
STARTCHAR comma
ENCODING 44
SWIDTH 200 0
DWIDTH 2 0
BBX 1 2 1 -1
BITMAP
80
80
ENDCHAR
STARTCHAR hyphen
ENCODING 45
SWIDTH 300 0
DWIDTH 3 0
BBX 2 1 1 3
BITMAP
C0
ENDCHAR
STARTCHAR period
ENCODING 46
SWIDTH 200 0
DWIDTH 2 0
BBX 1 1 1 0
BITMAP
80
ENDCHAR
STARTCHAR slash
ENCODING 47
SWIDTH 400 0
DWIDTH 4 0
BBX 3 9 1 -1
BITMAP
20
20
20
40
40
40
80
80
80
ENDCHAR
STARTCHAR zero
ENCODING 48
SWIDTH 400 0
DWIDTH 4 0
BBX 3 8 1 0
BITMAP
40
A0
A0
A0
A0
A0
A0
40
ENDCHAR
STARTCHAR one
ENCODING 49
SWIDTH 400 0
DWIDTH 4 0
BBX 3 8 1 0
BITMAP
40
C0
40
40
40
40
40
E0
ENDCHAR
STARTCHAR two
ENCODING 50
SWIDTH 400 0
DWIDTH 4 0
BBX 3 8 1 0
BITMAP
40
A0
20
20
40
40
80
E0
ENDCHAR
STARTCHAR three
ENCODING 51
SWIDTH 400 0
DWIDTH 4 0
BBX 3 8 1 0
BITMAP
40
A0
20
40
20
A0
A0
40
ENDCHAR
STARTCHAR four
ENCODING 52
SWIDTH 400 0
DWIDTH 4 0
BBX 3 7 1 0
BITMAP
20
A0
A0
E0
20
20
20
ENDCHAR
STARTCHAR five
ENCODING 53
SWIDTH 400 0
DWIDTH 4 0
BBX 3 8 1 0
BITMAP
60
80
80
C0
20
A0
A0
40
ENDCHAR
STARTCHAR six
ENCODING 54
SWIDTH 400 0
DWIDTH 4 0
BBX 3 8 1 0
BITMAP
40
A0
80
C0
A0
A0
A0
40
ENDCHAR
STARTCHAR seven
ENCODING 55
SWIDTH 400 0
DWIDTH 4 0
BBX 3 8 1 0
BITMAP
E0
20
20
40
40
40
80
80
ENDCHAR
STARTCHAR eight
ENCODING 56
SWIDTH 400 0
DWIDTH 4 0
BBX 3 8 1 0
BITMAP
40
A0
A0
40
A0
A0
A0
40
ENDCHAR
STARTCHAR nine
ENCODING 57
SWIDTH 400 0
DWIDTH 4 0
BBX 3 8 1 0
BITMAP
40
A0
A0
A0
60
20
A0
40
ENDCHAR
STARTCHAR colon
ENCODING 58
SWIDTH 200 0
DWIDTH 2 0
BBX 1 6 1 0
BITMAP
80
00
00
00
00
80
ENDCHAR
STARTCHAR semicolon
ENCODING 59
SWIDTH 200 0
DWIDTH 2 0
BBX 1 7 1 -1
BITMAP
80
00
00
00
00
80
80
ENDCHAR
STARTCHAR less
ENCODING 60
SWIDTH 500 0
DWIDTH 5 0
BBX 4 5 1 0
BITMAP
30
40
80
40
30
ENDCHAR
STARTCHAR equal
ENCODING 61
SWIDTH 500 0
DWIDTH 5 0
BBX 4 3 1 1
BITMAP
F0
00
F0
ENDCHAR
STARTCHAR greater
ENCODING 62
SWIDTH 500 0
DWIDTH 5 0
BBX 4 5 1 0
BITMAP
C0
20
10
20
C0
ENDCHAR
STARTCHAR question
ENCODING 63
SWIDTH 400 0
DWIDTH 4 0
BBX 3 8 1 0
BITMAP
40
A0
20
20
40
40
00
40
ENDCHAR
STARTCHAR at
ENCODING 64
SWIDTH 800 0
DWIDTH 8 0
BBX 7 9 1 -1
BITMAP
38
44
9A
AA
AA
AA
B4
40
38
ENDCHAR
STARTCHAR A
ENCODING 65
SWIDTH 600 0
DWIDTH 6 0
BBX 5 8 1 0
BITMAP
20
20
50
50
50
F8
88
D8
ENDCHAR
STARTCHAR B
ENCODING 66
SWIDTH 600 0
DWIDTH 6 0
BBX 5 8 1 0
BITMAP
F0
48
48
70
48
48
48
F0
ENDCHAR
STARTCHAR C
ENCODING 67
SWIDTH 600 0
DWIDTH 6 0
BBX 5 8 1 0
BITMAP
78
88
88
80
80
88
88
70
ENDCHAR
STARTCHAR D
ENCODING 68
SWIDTH 600 0
DWIDTH 6 0
BBX 5 8 1 0
BITMAP
F0
48
48
48
48
48
48
F0
ENDCHAR
STARTCHAR E
ENCODING 69
SWIDTH 600 0
DWIDTH 6 0
BBX 5 8 1 0
BITMAP
F8
48
40
70
40
48
48
F8
ENDCHAR
STARTCHAR F
ENCODING 70
SWIDTH 600 0
DWIDTH 6 0
BBX 5 8 1 0
BITMAP
F8
48
40
70
40
40
40
E0
ENDCHAR
STARTCHAR G
ENCODING 71
SWIDTH 600 0
DWIDTH 6 0
BBX 5 8 1 0
BITMAP
78
88
88
80
98
88
88
70
ENDCHAR
STARTCHAR H
ENCODING 72
SWIDTH 700 0
DWIDTH 7 0
BBX 6 8 1 0
BITMAP
EC
48
48
78
48
48
48
DC
ENDCHAR
STARTCHAR I
ENCODING 73
SWIDTH 400 0
DWIDTH 4 0
BBX 3 8 1 0
BITMAP
E0
40
40
40
40
40
40
E0
ENDCHAR
STARTCHAR J
ENCODING 74
SWIDTH 400 0
DWIDTH 4 0
BBX 4 8 0 0
BITMAP
70
20
20
20
20
20
A0
40
ENDCHAR
STARTCHAR K
ENCODING 75
SWIDTH 700 0
DWIDTH 7 0
BBX 6 8 1 0
BITMAP
CC
48
50
60
50
50
48
CC
ENDCHAR
STARTCHAR L
ENCODING 76
SWIDTH 600 0
DWIDTH 6 0
BBX 5 8 1 0
BITMAP
E0
40
40
40
40
48
48
F8
ENDCHAR
STARTCHAR M
ENCODING 77
SWIDTH 800 0
DWIDTH 8 0
BBX 7 8 1 0
BITMAP
82
C6
C6
AA
AA
AA
92
92
ENDCHAR
STARTCHAR N
ENCODING 78
SWIDTH 600 0
DWIDTH 6 0
BBX 5 8 1 0
BITMAP
88
88
C8
A8
A8
98
88
88
ENDCHAR
STARTCHAR O
ENCODING 79
SWIDTH 600 0
DWIDTH 6 0
BBX 5 8 1 0
BITMAP
70
88
88
88
88
88
88
70
ENDCHAR
STARTCHAR P
ENCODING 80
SWIDTH 500 0
DWIDTH 5 0
BBX 4 8 1 0
BITMAP
E0
90
90
90
E0
80
80
C0
ENDCHAR
STARTCHAR Q
ENCODING 81
SWIDTH 600 0
DWIDTH 6 0
BBX 5 10 1 -2
BITMAP
70
88
88
88
88
88
88
70
20
18
ENDCHAR
STARTCHAR R
ENCODING 82
SWIDTH 600 0
DWIDTH 6 0
BBX 5 8 1 0
BITMAP
F0
48
48
48
70
50
48
C8
ENDCHAR
STARTCHAR S
ENCODING 83
SWIDTH 500 0
DWIDTH 5 0
BBX 4 8 1 0
BITMAP
70
90
C0
60
30
10
90
E0
ENDCHAR
STARTCHAR T
ENCODING 84
SWIDTH 600 0
DWIDTH 6 0
BBX 5 8 1 0
BITMAP
F8
A8
20
20
20
20
20
70
ENDCHAR
STARTCHAR U
ENCODING 85
SWIDTH 700 0
DWIDTH 7 0
BBX 6 8 1 0
BITMAP
EC
48
48
48
48
48
48
30
ENDCHAR
STARTCHAR V
ENCODING 86
SWIDTH 600 0
DWIDTH 6 0
BBX 5 8 1 0
BITMAP
88
88
88
50
50
50
20
20
ENDCHAR
STARTCHAR W
ENCODING 87
SWIDTH 900 0
DWIDTH 9 0
BBX 8 8 1 0
BITMAP
91
91
52
4A
5A
24
24
24
ENDCHAR
STARTCHAR X
ENCODING 88
SWIDTH 600 0
DWIDTH 6 0
BBX 5 8 1 0
BITMAP
88
D0
50
60
30
50
58
88
ENDCHAR
STARTCHAR Y
ENCODING 89
SWIDTH 600 0
DWIDTH 6 0
BBX 6 8 0 0
BITMAP
CC
44
68
28
30
10
10
38
ENDCHAR
STARTCHAR Z
ENCODING 90
SWIDTH 600 0
DWIDTH 6 0
BBX 5 8 1 0
BITMAP
F8
88
10
30
60
40
88
F8
ENDCHAR
STARTCHAR bracketleft
ENCODING 91
SWIDTH 300 0
DWIDTH 3 0
BBX 2 10 1 -2
BITMAP
C0
80
80
80
80
80
80
80
80
C0
ENDCHAR
STARTCHAR backslash
ENCODING 92
SWIDTH 400 0
DWIDTH 4 0
BBX 3 9 1 -1
BITMAP
80
80
80
40
40
40
20
20
20
ENDCHAR
STARTCHAR bracketright
ENCODING 93
SWIDTH 300 0
DWIDTH 3 0
BBX 2 10 1 -2
BITMAP
C0
40
40
40
40
40
40
40
40
C0
ENDCHAR
STARTCHAR asciicircum
ENCODING 94
SWIDTH 600 0
DWIDTH 6 0
BBX 5 3 1 5
BITMAP
20
50
88
ENDCHAR
STARTCHAR underscore
ENCODING 95
SWIDTH 400 0
DWIDTH 4 0
BBX 4 1 0 -1
BITMAP
F0
ENDCHAR
STARTCHAR grave
ENCODING 96
SWIDTH 400 0
DWIDTH 4 0
BBX 2 2 1 7
BITMAP
80
40
ENDCHAR
STARTCHAR a
ENCODING 97
SWIDTH 400 0
DWIDTH 4 0
BBX 3 6 1 0
BITMAP
C0
20
60
A0
A0
E0
ENDCHAR
STARTCHAR b
ENCODING 98
SWIDTH 500 0
DWIDTH 5 0
BBX 5 8 0 0
BITMAP
C0
40
70
48
48
48
48
30
ENDCHAR
STARTCHAR c
ENCODING 99
SWIDTH 400 0
DWIDTH 4 0
BBX 3 6 1 0
BITMAP
60
A0
80
80
80
60
ENDCHAR
STARTCHAR d
ENCODING 100
SWIDTH 500 0
DWIDTH 5 0
BBX 4 8 1 0
BITMAP
30
10
70
90
90
90
90
70
ENDCHAR
STARTCHAR e
ENCODING 101
SWIDTH 400 0
DWIDTH 4 0
BBX 3 6 1 0
BITMAP
40
A0
A0
C0
80
60
ENDCHAR
STARTCHAR f
ENCODING 102
SWIDTH 300 0
DWIDTH 3 0
BBX 2 8 1 0
BITMAP
40
80
C0
80
80
80
80
80
ENDCHAR
STARTCHAR g
ENCODING 103
SWIDTH 400 0
DWIDTH 4 0
BBX 3 8 1 -2
BITMAP
60
A0
A0
40
60
A0
A0
C0
ENDCHAR
STARTCHAR h
ENCODING 104
SWIDTH 400 0
DWIDTH 4 0
BBX 4 8 0 0
BITMAP
C0
40
60
50
50
50
50
50
ENDCHAR
STARTCHAR i
ENCODING 105
SWIDTH 200 0
DWIDTH 2 0
BBX 1 8 1 0
BITMAP
80
00
80
80
80
80
80
80
ENDCHAR
STARTCHAR j
ENCODING 106
SWIDTH 200 0
DWIDTH 2 0
BBX 2 10 0 -2
BITMAP
40
00
40
40
40
40
40
40
40
80
ENDCHAR
STARTCHAR k
ENCODING 107
SWIDTH 400 0
DWIDTH 4 0
BBX 4 8 0 0
BITMAP
C0
40
50
50
60
60
50
50
ENDCHAR
STARTCHAR l
ENCODING 108
SWIDTH 200 0
DWIDTH 2 0
BBX 2 8 0 0
BITMAP
C0
40
40
40
40
40
40
40
ENDCHAR
STARTCHAR m
ENCODING 109
SWIDTH 600 0
DWIDTH 6 0
BBX 5 6 1 0
BITMAP
D0
A8
A8
A8
A8
A8
ENDCHAR
STARTCHAR n
ENCODING 110
SWIDTH 400 0
DWIDTH 4 0
BBX 3 6 1 0
BITMAP
C0
A0
A0
A0
A0
A0
ENDCHAR
STARTCHAR o
ENCODING 111
SWIDTH 500 0
DWIDTH 5 0
BBX 4 6 1 0
BITMAP
60
90
90
90
90
60
ENDCHAR
STARTCHAR p
ENCODING 112
SWIDTH 500 0
DWIDTH 5 0
BBX 4 8 1 -2
BITMAP
E0
90
90
90
90
E0
80
C0
ENDCHAR
STARTCHAR q
ENCODING 113
SWIDTH 600 0
DWIDTH 6 0
BBX 5 8 1 -2
BITMAP
70
90
90
90
90
70
10
18
ENDCHAR
STARTCHAR r
ENCODING 114
SWIDTH 400 0
DWIDTH 4 0
BBX 3 6 1 0
BITMAP
E0
80
80
80
80
80
ENDCHAR
STARTCHAR s
ENCODING 115
SWIDTH 400 0
DWIDTH 4 0
BBX 3 6 1 0
BITMAP
60
80
C0
20
20
C0
ENDCHAR
STARTCHAR t
ENCODING 116
SWIDTH 300 0
DWIDTH 3 0
BBX 2 7 1 0
BITMAP
80
C0
80
80
80
80
40
ENDCHAR
STARTCHAR u
ENCODING 117
SWIDTH 400 0
DWIDTH 4 0
BBX 3 6 1 0
BITMAP
A0
A0
A0
A0
A0
60
ENDCHAR
STARTCHAR v
ENCODING 118
SWIDTH 400 0
DWIDTH 4 0
BBX 3 6 1 0
BITMAP
A0
A0
A0
A0
40
40
ENDCHAR
STARTCHAR w
ENCODING 119
SWIDTH 600 0
DWIDTH 6 0
BBX 5 6 1 0
BITMAP
A8
A8
A8
A8
50
50
ENDCHAR
STARTCHAR x
ENCODING 120
SWIDTH 400 0
DWIDTH 4 0
BBX 3 6 1 0
BITMAP
A0
A0
40
40
A0
A0
ENDCHAR
STARTCHAR y
ENCODING 121
SWIDTH 400 0
DWIDTH 4 0
BBX 3 8 1 -2
BITMAP
A0
A0
A0
A0
40
40
40
80
ENDCHAR
STARTCHAR z
ENCODING 122
SWIDTH 400 0
DWIDTH 4 0
BBX 3 6 1 0
BITMAP
E0
20
40
40
80
E0
ENDCHAR
STARTCHAR braceleft
ENCODING 123
SWIDTH 400 0
DWIDTH 4 0
BBX 3 10 1 -2
BITMAP
20
40
40
40
80
40
40
40
40
20
ENDCHAR
STARTCHAR bar
ENCODING 124
SWIDTH 400 0
DWIDTH 4 0
BBX 1 10 2 -2
BITMAP
80
80
80
80
80
80
80
80
80
80
ENDCHAR
STARTCHAR braceright
ENCODING 125
SWIDTH 400 0
DWIDTH 4 0
BBX 3 10 1 -2
BITMAP
80
40
40
40
20
40
40
40
40
80
ENDCHAR
STARTCHAR asciitilde
ENCODING 126
SWIDTH 600 0
DWIDTH 6 0
BBX 5 3 1 5
BITMAP
48
A8
90
ENDCHAR
STARTCHAR bullet
ENCODING 149
SWIDTH 400 0
DWIDTH 4 0
BBX 3 5 1 3
BITMAP
40
E0
E0
E0
40
ENDCHAR
STARTCHAR space
ENCODING 154
SWIDTH 200 0
DWIDTH 2 0
BBX 0 0 0 0
BITMAP
ENDCHAR
STARTCHAR degree
ENCODING 156
SWIDTH 400 0
DWIDTH 4 0
BBX 3 3 1 5
BITMAP
40
A0
40
ENDCHAR
STARTCHAR twosuperior
ENCODING 157
SWIDTH 400 0
DWIDTH 4 0
BBX 3 5 1 3
BITMAP
C0
20
40
80
E0
ENDCHAR
STARTCHAR periodcentered
ENCODING 158
SWIDTH 200 0
DWIDTH 2 0
BBX 1 1 1 3
BITMAP
80
ENDCHAR
STARTCHAR afii10071
ENCODING 163
SWIDTH 400 0
DWIDTH 4 0
BBX 4 7 1 0
BITMAP
90
60
90
90
E0
80
70
ENDCHAR
STARTCHAR afii10023
ENCODING 179
SWIDTH 500 0
DWIDTH 5 0
BBX 5 10 1 0
BITMAP
50
00
F8
48
40
70
40
40
48
F8
ENDCHAR
STARTCHAR copyright
ENCODING 191
SWIDTH 700 0
DWIDTH 7 0
BBX 7 8 0 0
BITMAP
38
44
9A
A2
A2
9A
44
38
ENDCHAR
STARTCHAR afii10096
ENCODING 192
SWIDTH 700 0
DWIDTH 7 0
BBX 7 6 0 0
BITMAP
CC
52
52
72
52
CC
ENDCHAR
STARTCHAR afii10065
ENCODING 193
SWIDTH 500 0
DWIDTH 5 0
BBX 4 6 1 0
BITMAP
E0
10
70
90
90
70
ENDCHAR
STARTCHAR afii10066
ENCODING 194
SWIDTH 500 0
DWIDTH 5 0
BBX 4 7 1 0
BITMAP
70
80
E0
70
90
90
E0
ENDCHAR
STARTCHAR afii10088
ENCODING 195
SWIDTH 500 0
DWIDTH 5 0
BBX 4 7 1 -1
BITMAP
90
90
90
90
90
F0
10
ENDCHAR
STARTCHAR afii10069
ENCODING 196
SWIDTH 600 0
DWIDTH 6 0
BBX 5 7 1 -1
BITMAP
70
50
50
50
50
F8
88
ENDCHAR
STARTCHAR afii10070
ENCODING 197
SWIDTH 400 0
DWIDTH 4 0
BBX 4 6 1 0
BITMAP
60
90
90
E0
80
70
ENDCHAR
STARTCHAR afii10086
ENCODING 198
SWIDTH 600 0
DWIDTH 6 0
BBX 5 9 1 -2
BITMAP
20
70
A8
A8
A8
70
20
20
20
ENDCHAR
STARTCHAR afii10068
ENCODING 199
SWIDTH 400 0
DWIDTH 4 0
BBX 3 6 1 0
BITMAP
E0
A0
80
80
80
80
ENDCHAR
STARTCHAR afii10087
ENCODING 200
SWIDTH 400 0
DWIDTH 4 0
BBX 3 6 1 0
BITMAP
A0
A0
40
40
A0
A0
ENDCHAR
STARTCHAR afii10074
ENCODING 201
SWIDTH 500 0
DWIDTH 5 0
BBX 4 6 1 0
BITMAP
90
90
90
B0
D0
90
ENDCHAR
STARTCHAR afii10075
ENCODING 202
SWIDTH 500 0
DWIDTH 5 0
BBX 4 8 1 0
BITMAP
60
00
90
90
90
B0
D0
90
ENDCHAR
STARTCHAR afii10076
ENCODING 203
SWIDTH 500 0
DWIDTH 5 0
BBX 4 6 1 0
BITMAP
90
A0
C0
A0
90
90
ENDCHAR
STARTCHAR afii10077
ENCODING 204
SWIDTH 500 0
DWIDTH 5 0
BBX 5 6 0 0
BITMAP
38
28
28
28
28
C8
ENDCHAR
STARTCHAR afii10078
ENCODING 205
SWIDTH 600 0
DWIDTH 6 0
BBX 5 6 1 0
BITMAP
88
D8
A8
A8
88
88
ENDCHAR
STARTCHAR afii10079
ENCODING 206
SWIDTH 500 0
DWIDTH 5 0
BBX 4 6 1 0
BITMAP
90
90
90
F0
90
90
ENDCHAR
STARTCHAR afii10080
ENCODING 207
SWIDTH 500 0
DWIDTH 5 0
BBX 4 6 1 0
BITMAP
60
90
90
90
90
60
ENDCHAR
STARTCHAR afii10081
ENCODING 208
SWIDTH 400 0
DWIDTH 4 0
BBX 3 6 1 0
BITMAP
E0
A0
A0
A0
A0
A0
ENDCHAR
STARTCHAR afii10097
ENCODING 209
SWIDTH 500 0
DWIDTH 5 0
BBX 4 6 1 0
BITMAP
70
90
90
70
90
90
ENDCHAR
STARTCHAR afii10082
ENCODING 210
SWIDTH 500 0
DWIDTH 5 0
BBX 4 8 1 -2
BITMAP
E0
90
90
90
90
E0
80
C0
ENDCHAR
STARTCHAR afii10083
ENCODING 211
SWIDTH 400 0
DWIDTH 4 0
BBX 3 6 1 0
BITMAP
60
A0
80
80
80
60
ENDCHAR
STARTCHAR afii10084
ENCODING 212
SWIDTH 400 0
DWIDTH 4 0
BBX 3 6 1 0
BITMAP
E0
40
40
40
40
40
ENDCHAR
STARTCHAR afii10085
ENCODING 213
SWIDTH 600 0
DWIDTH 6 0
BBX 5 8 1 -2
BITMAP
88
88
50
50
20
20
A0
40
ENDCHAR
STARTCHAR afii10072
ENCODING 214
SWIDTH 600 0
DWIDTH 6 0
BBX 5 6 1 0
BITMAP
A8
A8
70
70
A8
A8
ENDCHAR
STARTCHAR afii10067
ENCODING 215
SWIDTH 400 0
DWIDTH 4 0
BBX 3 6 1 0
BITMAP
C0
A0
C0
A0
A0
C0
ENDCHAR
STARTCHAR afii10094
ENCODING 216
SWIDTH 500 0
DWIDTH 5 0
BBX 4 6 1 0
BITMAP
C0
40
60
50
50
E0
ENDCHAR
STARTCHAR afii10093
ENCODING 217
SWIDTH 700 0
DWIDTH 7 0
BBX 6 6 1 0
BITMAP
CC
44
64
54
54
EC
ENDCHAR
STARTCHAR afii10073
ENCODING 218
SWIDTH 500 0
DWIDTH 5 0
BBX 4 6 1 0
BITMAP
60
90
20
10
90
60
ENDCHAR
STARTCHAR afii10090
ENCODING 219
SWIDTH 800 0
DWIDTH 8 0
BBX 7 6 1 0
BITMAP
D6
54
54
54
54
FE
ENDCHAR
STARTCHAR afii10095
ENCODING 220
SWIDTH 500 0
DWIDTH 5 0
BBX 4 6 1 0
BITMAP
E0
10
70
10
90
E0
ENDCHAR
STARTCHAR afii10091
ENCODING 221
SWIDTH 800 0
DWIDTH 8 0
BBX 7 7 1 -1
BITMAP
D6
54
54
54
54
FE
02
ENDCHAR
STARTCHAR afii10089
ENCODING 222
SWIDTH 500 0
DWIDTH 5 0
BBX 4 6 1 0
BITMAP
90
90
70
10
10
10
ENDCHAR
STARTCHAR afii10092
ENCODING 223
SWIDTH 600 0
DWIDTH 6 0
BBX 5 6 1 0
BITMAP
E0
A0
30
28
28
70
ENDCHAR
STARTCHAR afii10048
ENCODING 224
SWIDTH 800 0
DWIDTH 8 0
BBX 7 8 1 0
BITMAP
EC
52
52
52
72
52
52
EC
ENDCHAR
STARTCHAR afii10017
ENCODING 225
SWIDTH 600 0
DWIDTH 6 0
BBX 5 8 1 0
BITMAP
20
20
50
50
50
F8
88
D8
ENDCHAR
STARTCHAR afii10018
ENCODING 226
SWIDTH 600 0
DWIDTH 6 0
BBX 5 8 1 0
BITMAP
F8
48
40
70
48
48
48
F0
ENDCHAR
STARTCHAR afii10040
ENCODING 227
SWIDTH 600 0
DWIDTH 6 0
BBX 5 9 1 -1
BITMAP
90
90
90
90
90
90
90
F8
08
ENDCHAR
STARTCHAR afii10021
ENCODING 228
SWIDTH 800 0
DWIDTH 8 0
BBX 7 9 1 -1
BITMAP
7E
24
24
24
24
24
44
FE
82
ENDCHAR
STARTCHAR afii10022
ENCODING 229
SWIDTH 600 0
DWIDTH 6 0
BBX 5 8 1 0
BITMAP
F8
48
40
70
40
40
48
F8
ENDCHAR
STARTCHAR afii10038
ENCODING 230
SWIDTH 800 0
DWIDTH 8 0
BBX 7 10 1 0
BITMAP
38
10
7C
92
92
92
7C
10
10
38
ENDCHAR
STARTCHAR afii10020
ENCODING 231
SWIDTH 600 0
DWIDTH 6 0
BBX 5 8 1 0
BITMAP
F8
48
40
40
40
40
40
E0
ENDCHAR
STARTCHAR afii10039
ENCODING 232
SWIDTH 600 0
DWIDTH 6 0
BBX 5 8 1 0
BITMAP
88
88
50
20
50
88
88
88
ENDCHAR
STARTCHAR afii10026
ENCODING 233
SWIDTH 600 0
DWIDTH 6 0
BBX 5 8 1 0
BITMAP
88
88
88
98
A8
C8
88
88
ENDCHAR
STARTCHAR afii10027
ENCODING 234
SWIDTH 600 0
DWIDTH 6 0
BBX 5 9 1 0
BITMAP
20
88
88
88
98
A8
C8
88
88
ENDCHAR
STARTCHAR afii10028
ENCODING 235
SWIDTH 700 0
DWIDTH 7 0
BBX 6 8 1 0
BITMAP
CC
48
50
60
50
50
48
CC
ENDCHAR
STARTCHAR afii10029
ENCODING 236
SWIDTH 700 0
DWIDTH 7 0
BBX 6 8 1 0
BITMAP
3C
24
24
24
24
24
24
C4
ENDCHAR
STARTCHAR afii10030
ENCODING 237
SWIDTH 800 0
DWIDTH 8 0
BBX 7 8 1 0
BITMAP
82
C6
C6
AA
AA
AA
92
92
ENDCHAR
STARTCHAR afii10031
ENCODING 238
SWIDTH 800 0
DWIDTH 8 0
BBX 7 8 1 0
BITMAP
EE
44
44
44
7C
44
44
EE
ENDCHAR
STARTCHAR afii10032
ENCODING 239
SWIDTH 600 0
DWIDTH 6 0
BBX 5 8 1 0
BITMAP
70
88
88
88
88
88
88
70
ENDCHAR
STARTCHAR afii10033
ENCODING 240
SWIDTH 800 0
DWIDTH 8 0
BBX 7 8 1 0
BITMAP
FE
44
44
44
44
44
44
EE
ENDCHAR
STARTCHAR afii10049
ENCODING 241
SWIDTH 600 0
DWIDTH 6 0
BBX 6 8 0 0
BITMAP
3C
48
48
48
38
48
48
CC
ENDCHAR
STARTCHAR afii10034
ENCODING 242
SWIDTH 600 0
DWIDTH 6 0
BBX 5 8 1 0
BITMAP
F0
48
48
48
70
40
40
E0
ENDCHAR
STARTCHAR afii10035
ENCODING 243
SWIDTH 600 0
DWIDTH 6 0
BBX 5 8 1 0
BITMAP
78
88
80
80
80
80
88
70
ENDCHAR
STARTCHAR afii10036
ENCODING 244
SWIDTH 600 0
DWIDTH 6 0
BBX 5 8 1 0
BITMAP
F8
A8
20
20
20
20
20
70
ENDCHAR
STARTCHAR afii10037
ENCODING 245
SWIDTH 600 0
DWIDTH 6 0
BBX 5 8 1 0
BITMAP
88
88
48
50
30
20
20
C0
ENDCHAR
STARTCHAR afii10024
ENCODING 246
SWIDTH 800 0
DWIDTH 8 0
BBX 7 8 1 0
BITMAP
92
92
54
38
54
92
92
92
ENDCHAR
STARTCHAR afii10019
ENCODING 247
SWIDTH 600 0
DWIDTH 6 0
BBX 5 8 1 0
BITMAP
F0
48
48
70
48
48
48
F0
ENDCHAR
STARTCHAR afii10046
ENCODING 248
SWIDTH 600 0
DWIDTH 6 0
BBX 5 8 1 0
BITMAP
E0
40
40
70
48
48
48
F0
ENDCHAR
STARTCHAR afii10045
ENCODING 249
SWIDTH 800 0
DWIDTH 8 0
BBX 7 8 1 0
BITMAP
E6
42
42
72
4A
4A
4A
F6
ENDCHAR
STARTCHAR afii10025
ENCODING 250
SWIDTH 600 0
DWIDTH 6 0
BBX 5 8 1 0
BITMAP
F0
88
08
30
08
08
88
70
ENDCHAR
STARTCHAR afii10042
ENCODING 251
SWIDTH 900 0
DWIDTH 9 0
BBX 8 9 1 -1
BITMAP
DB
49
49
49
49
49
49
FF
01
ENDCHAR
STARTCHAR afii10047
ENCODING 252
SWIDTH 600 0
DWIDTH 6 0
BBX 5 8 1 0
BITMAP
F0
98
08
78
08
08
90
E0
ENDCHAR
STARTCHAR afii10043
ENCODING 253
SWIDTH 900 0
DWIDTH 9 0
BBX 8 8 1 0
BITMAP
DB
49
49
49
49
49
49
FF
ENDCHAR
STARTCHAR afii10041
ENCODING 254
SWIDTH 700 0
DWIDTH 7 0
BBX 7 8 0 0
BITMAP
EE
44
44
3C
04
04
04
0E
ENDCHAR
STARTCHAR afii10044
ENCODING 255
SWIDTH 700 0
DWIDTH 7 0
BBX 6 8 1 0
BITMAP
F0
A0
20
38
24
24
24
78
ENDCHAR
ENDFONT
