STARTFONT 2.1
FONT -Cronyx-Times-Medium-R-Normal--8-80-75-75-P-44-KOI8-R
SIZE 8 72 72
FONTBOUNDINGBOX 7 10 0 -1
STARTPROPERTIES 21
DEFAULT_CHAR 32
FONT_ASCENT 9
FONT_DESCENT 1
SPACING "P"
FONTNAME_REGISTRY ""
FOUNDRY "Cronyx"
FAMILY_NAME "Times"
WEIGHT_NAME "Medium"
SLANT "R"
SETWIDTH_NAME "Normal"
ADD_STYLE_NAME ""
AVERAGE_WIDTH 44
CHARSET_REGISTRY "KOI8"
CHARSET_ENCODING "R"
PIXEL_SIZE 8
POINT_SIZE 80
RESOLUTION_X 75
RESOLUTION_Y 75
COPYRIGHT "Copyright (C) 1990, 1991 EWT Consulting, Portions Copyright (C) 1996-1997 by Andrey A. Chernov, Moscow, Russia."
_XMBDFED_INFO "Edited with xmbdfed 3.8."
_XFREE86_GLYPH_RANGES "32_126 149 154 156_158 163 179 191_255"
ENDPROPERTIES
CHARS 167
STARTCHAR space
ENCODING 32
SWIDTH 250 0
DWIDTH 2 0
BBX 0 0 0 0
BITMAP
ENDCHAR
STARTCHAR exclam
ENCODING 33
SWIDTH 250 0
DWIDTH 2 0
BBX 1 7 1 0
BITMAP
80
80
80
80
80
00
80
ENDCHAR
STARTCHAR quotedbl
ENCODING 34
SWIDTH 500 0
DWIDTH 4 0
BBX 3 2 1 5
BITMAP
A0
A0
ENDCHAR
STARTCHAR numbersign
ENCODING 35
SWIDTH 625 0
DWIDTH 5 0
BBX 5 7 0 0
BITMAP
50
50
F8
50
F8
50
50
ENDCHAR
STARTCHAR dollar
ENCODING 36
SWIDTH 500 0
DWIDTH 4 0
BBX 3 7 1 0
BITMAP
40
E0
80
40
20
E0
40
ENDCHAR
STARTCHAR percent
ENCODING 37
SWIDTH 750 0
DWIDTH 6 0
BBX 6 7 0 0
BITMAP
48
A8
50
20
28
54
48
ENDCHAR
STARTCHAR ampersand
ENCODING 38
SWIDTH 625 0
DWIDTH 5 0
BBX 4 7 1 0
BITMAP
40
A0
40
A0
B0
A0
50
ENDCHAR
STARTCHAR quotesingle
ENCODING 39
SWIDTH 250 0
DWIDTH 2 0
BBX 1 2 1 5
BITMAP
80
80
ENDCHAR
STARTCHAR parenleft
ENCODING 40
SWIDTH 375 0
DWIDTH 3 0
BBX 2 8 1 -1
BITMAP
40
80
80
80
80
80
80
40
ENDCHAR
STARTCHAR parenright
ENCODING 41
SWIDTH 375 0
DWIDTH 3 0
BBX 2 8 1 -1
BITMAP
80
40
40
40
40
40
40
80
ENDCHAR
STARTCHAR asterisk
ENCODING 42
SWIDTH 500 0
DWIDTH 4 0
BBX 3 4 1 3
BITMAP
40
E0
40
A0
ENDCHAR
STARTCHAR plus
ENCODING 43
SWIDTH 500 0
DWIDTH 4 0
BBX 3 5 1 1
BITMAP
40
40
E0
40
40
ENDCHAR
STARTCHAR comma
ENCODING 44
SWIDTH 250 0
DWIDTH 2 0
BBX 1 2 1 -1
BITMAP
80
80
ENDCHAR
STARTCHAR hyphen
ENCODING 45
SWIDTH 375 0
DWIDTH 3 0
BBX 2 1 1 2
BITMAP
C0
ENDCHAR
STARTCHAR period
ENCODING 46
SWIDTH 250 0
DWIDTH 2 0
BBX 1 1 1 0
BITMAP
80
ENDCHAR
STARTCHAR slash
ENCODING 47
SWIDTH 500 0
DWIDTH 4 0
BBX 3 8 1 -1
BITMAP
20
20
40
40
40
80
80
80
ENDCHAR
STARTCHAR zero
ENCODING 48
SWIDTH 500 0
DWIDTH 4 0
BBX 3 7 1 0
BITMAP
40
A0
A0
A0
A0
A0
40
ENDCHAR
STARTCHAR one
ENCODING 49
SWIDTH 500 0
DWIDTH 4 0
BBX 3 7 1 0
BITMAP
40
C0
40
40
40
40
E0
ENDCHAR
STARTCHAR two
ENCODING 50
SWIDTH 500 0
DWIDTH 4 0
BBX 3 7 1 0
BITMAP
40
A0
20
40
40
80
E0
ENDCHAR
STARTCHAR three
ENCODING 51
SWIDTH 500 0
DWIDTH 4 0
BBX 3 7 1 0
BITMAP
40
A0
20
40
20
A0
40
ENDCHAR
STARTCHAR four
ENCODING 52
SWIDTH 500 0
DWIDTH 4 0
BBX 3 6 1 0
BITMAP
A0
A0
A0
E0
20
20
ENDCHAR
STARTCHAR five
ENCODING 53
SWIDTH 500 0
DWIDTH 4 0
BBX 3 7 1 0
BITMAP
60
80
C0
20
20
20
C0
ENDCHAR
STARTCHAR six
ENCODING 54
SWIDTH 500 0
DWIDTH 4 0
BBX 3 7 1 0
BITMAP
60
80
C0
A0
A0
A0
40
ENDCHAR
STARTCHAR seven
ENCODING 55
SWIDTH 500 0
DWIDTH 4 0
BBX 3 7 1 0
BITMAP
E0
20
20
40
40
80
80
ENDCHAR
STARTCHAR eight
ENCODING 56
SWIDTH 500 0
DWIDTH 4 0
BBX 3 7 1 0
BITMAP
40
A0
A0
40
A0
A0
40
ENDCHAR
STARTCHAR nine
ENCODING 57
SWIDTH 500 0
DWIDTH 4 0
BBX 3 7 1 0
BITMAP
40
A0
A0
60
20
20
C0
ENDCHAR
STARTCHAR colon
ENCODING 58
SWIDTH 250 0
DWIDTH 2 0
BBX 1 5 1 0
BITMAP
80
00
00
00
80
ENDCHAR
STARTCHAR semicolon
ENCODING 59
SWIDTH 250 0
DWIDTH 2 0
BBX 1 6 1 -1
BITMAP
80
00
00
00
80
80
ENDCHAR
STARTCHAR less
ENCODING 60
SWIDTH 500 0
DWIDTH 4 0
BBX 3 5 1 1
BITMAP
20
40
80
40
20
ENDCHAR
STARTCHAR equal
ENCODING 61
SWIDTH 500 0
DWIDTH 4 0
BBX 3 3 1 2
BITMAP
E0
00
E0
ENDCHAR
STARTCHAR greater
ENCODING 62
SWIDTH 500 0
DWIDTH 4 0
BBX 3 5 1 1
BITMAP
80
40
20
40
80
ENDCHAR
STARTCHAR question
ENCODING 63
SWIDTH 375 0
DWIDTH 3 0
BBX 2 7 1 0
BITMAP
80
40
40
80
80
00
80
ENDCHAR
STARTCHAR at
ENCODING 64
SWIDTH 875 0
DWIDTH 7 0
BBX 6 8 1 -1
BITMAP
78
84
B4
94
B4
A8
80
70
ENDCHAR
STARTCHAR A
ENCODING 65
SWIDTH 750 0
DWIDTH 6 0
BBX 5 7 1 0
BITMAP
20
20
50
50
70
88
88
ENDCHAR
STARTCHAR B
ENCODING 66
SWIDTH 625 0
DWIDTH 5 0
BBX 4 7 1 0
BITMAP
E0
90
90
E0
90
90
E0
ENDCHAR
STARTCHAR C
ENCODING 67
SWIDTH 625 0
DWIDTH 5 0
BBX 4 7 1 0
BITMAP
70
90
80
80
90
90
60
ENDCHAR
STARTCHAR D
ENCODING 68
SWIDTH 625 0
DWIDTH 5 0
BBX 4 7 1 0
BITMAP
E0
90
90
90
90
90
E0
ENDCHAR
STARTCHAR E
ENCODING 69
SWIDTH 625 0
DWIDTH 5 0
BBX 4 7 1 0
BITMAP
F0
90
80
E0
80
90
F0
ENDCHAR
STARTCHAR F
ENCODING 70
SWIDTH 500 0
DWIDTH 4 0
BBX 3 7 1 0
BITMAP
E0
A0
80
C0
80
80
80
ENDCHAR
STARTCHAR G
ENCODING 71
SWIDTH 625 0
DWIDTH 5 0
BBX 4 7 1 0
BITMAP
70
90
80
B0
90
90
60
ENDCHAR
STARTCHAR H
ENCODING 72
SWIDTH 625 0
DWIDTH 5 0
BBX 4 7 1 0
BITMAP
90
90
90
F0
90
90
90
ENDCHAR
STARTCHAR I
ENCODING 73
SWIDTH 250 0
DWIDTH 2 0
BBX 1 7 1 0
BITMAP
80
80
80
80
80
80
80
ENDCHAR
STARTCHAR J
ENCODING 74
SWIDTH 375 0
DWIDTH 3 0
BBX 3 7 0 0
BITMAP
60
20
20
20
20
A0
40
ENDCHAR
STARTCHAR K
ENCODING 75
SWIDTH 625 0
DWIDTH 5 0
BBX 4 7 1 0
BITMAP
90
A0
A0
C0
A0
B0
90
ENDCHAR
STARTCHAR L
ENCODING 76
SWIDTH 500 0
DWIDTH 4 0
BBX 3 7 1 0
BITMAP
80
80
80
80
80
A0
E0
ENDCHAR
STARTCHAR M
ENCODING 77
SWIDTH 750 0
DWIDTH 6 0
BBX 5 7 1 0
BITMAP
88
D8
A8
A8
A8
A8
A8
ENDCHAR
STARTCHAR N
ENCODING 78
SWIDTH 625 0
DWIDTH 5 0
BBX 4 7 1 0
BITMAP
90
90
D0
B0
90
90
90
ENDCHAR
STARTCHAR O
ENCODING 79
SWIDTH 625 0
DWIDTH 5 0
BBX 4 7 1 0
BITMAP
60
90
90
90
90
90
60
ENDCHAR
STARTCHAR P
ENCODING 80
SWIDTH 625 0
DWIDTH 5 0
BBX 4 7 1 0
BITMAP
E0
90
90
90
E0
80
80
ENDCHAR
STARTCHAR Q
ENCODING 81
SWIDTH 625 0
DWIDTH 5 0
BBX 4 8 1 -1
BITMAP
60
90
90
90
90
90
60
30
ENDCHAR
STARTCHAR R
ENCODING 82
SWIDTH 625 0
DWIDTH 5 0
BBX 4 7 1 0
BITMAP
E0
90
90
E0
A0
90
90
ENDCHAR
STARTCHAR S
ENCODING 83
SWIDTH 500 0
DWIDTH 4 0
BBX 3 7 1 0
BITMAP
60
80
C0
60
20
A0
C0
ENDCHAR
STARTCHAR T
ENCODING 84
SWIDTH 500 0
DWIDTH 4 0
BBX 3 7 1 0
BITMAP
E0
40
40
40
40
40
40
ENDCHAR
STARTCHAR U
ENCODING 85
SWIDTH 625 0
DWIDTH 5 0
BBX 4 7 1 0
BITMAP
90
90
90
90
90
90
60
ENDCHAR
STARTCHAR V
ENCODING 86
SWIDTH 750 0
DWIDTH 6 0
BBX 5 7 1 0
BITMAP
88
88
50
50
50
20
20
ENDCHAR
STARTCHAR W
ENCODING 87
SWIDTH 750 0
DWIDTH 6 0
BBX 5 7 1 0
BITMAP
A8
A8
A8
A8
50
50
50
ENDCHAR
STARTCHAR X
ENCODING 88
SWIDTH 625 0
DWIDTH 5 0
BBX 4 7 1 0
BITMAP
90
90
50
60
A0
90
90
ENDCHAR
STARTCHAR Y
ENCODING 89
SWIDTH 750 0
DWIDTH 6 0
BBX 5 7 1 0
BITMAP
88
88
50
50
20
20
20
ENDCHAR
STARTCHAR Z
ENCODING 90
SWIDTH 625 0
DWIDTH 5 0
BBX 4 7 1 0
BITMAP
F0
90
20
60
40
90
F0
ENDCHAR
STARTCHAR bracketleft
ENCODING 91
SWIDTH 375 0
DWIDTH 3 0
BBX 2 8 1 -1
BITMAP
C0
80
80
80
80
80
80
C0
ENDCHAR
STARTCHAR backslash
ENCODING 92
SWIDTH 500 0
DWIDTH 4 0
BBX 3 8 1 -1
BITMAP
80
80
40
40
40
20
20
20
ENDCHAR
STARTCHAR bracketright
ENCODING 93
SWIDTH 375 0
DWIDTH 3 0
BBX 2 8 1 -1
BITMAP
C0
40
40
40
40
40
40
C0
ENDCHAR
STARTCHAR asciicircum
ENCODING 94
SWIDTH 750 0
DWIDTH 6 0
BBX 5 3 1 4
BITMAP
20
50
88
ENDCHAR
STARTCHAR underscore
ENCODING 95
SWIDTH 375 0
DWIDTH 3 0
BBX 3 1 0 -1
BITMAP
E0
ENDCHAR
STARTCHAR grave
ENCODING 96
SWIDTH 375 0
DWIDTH 3 0
BBX 2 2 1 7
BITMAP
80
40
ENDCHAR
STARTCHAR a
ENCODING 97
SWIDTH 500 0
DWIDTH 4 0
BBX 3 5 1 0
BITMAP
C0
20
60
A0
E0
ENDCHAR
STARTCHAR b
ENCODING 98
SWIDTH 500 0
DWIDTH 4 0
BBX 4 7 0 0
BITMAP
C0
40
60
50
50
50
20
ENDCHAR
STARTCHAR c
ENCODING 99
SWIDTH 375 0
DWIDTH 3 0
BBX 2 5 1 0
BITMAP
40
80
80
80
40
ENDCHAR
STARTCHAR d
ENCODING 100
SWIDTH 500 0
DWIDTH 4 0
BBX 3 7 1 0
BITMAP
60
20
60
A0
A0
A0
60
ENDCHAR
STARTCHAR e
ENCODING 101
SWIDTH 500 0
DWIDTH 4 0
BBX 3 5 1 0
BITMAP
40
A0
C0
80
60
ENDCHAR
STARTCHAR f
ENCODING 102
SWIDTH 375 0
DWIDTH 3 0
BBX 2 7 1 0
BITMAP
40
80
C0
80
80
80
80
ENDCHAR
STARTCHAR g
ENCODING 103
SWIDTH 500 0
DWIDTH 4 0
BBX 3 6 1 -1
BITMAP
60
A0
A0
60
20
C0
ENDCHAR
STARTCHAR h
ENCODING 104
SWIDTH 500 0
DWIDTH 4 0
BBX 4 7 0 0
BITMAP
C0
40
60
50
50
50
50
ENDCHAR
STARTCHAR i
ENCODING 105
SWIDTH 250 0
DWIDTH 2 0
BBX 1 7 1 0
BITMAP
80
00
80
80
80
80
80
ENDCHAR
STARTCHAR j
ENCODING 106
SWIDTH 250 0
DWIDTH 2 0
BBX 2 8 0 -1
BITMAP
40
00
40
40
40
40
40
80
ENDCHAR
STARTCHAR k
ENCODING 107
SWIDTH 500 0
DWIDTH 4 0
BBX 4 7 0 0
BITMAP
C0
40
50
60
60
50
50
ENDCHAR
STARTCHAR l
ENCODING 108
SWIDTH 250 0
DWIDTH 2 0
BBX 2 7 0 0
BITMAP
C0
40
40
40
40
40
40
ENDCHAR
STARTCHAR m
ENCODING 109
SWIDTH 750 0
DWIDTH 6 0
BBX 5 5 1 0
BITMAP
D0
A8
A8
A8
A8
ENDCHAR
STARTCHAR n
ENCODING 110
SWIDTH 500 0
DWIDTH 4 0
BBX 3 5 1 0
BITMAP
C0
A0
A0
A0
A0
ENDCHAR
STARTCHAR o
ENCODING 111
SWIDTH 500 0
DWIDTH 4 0
BBX 3 5 1 0
BITMAP
40
A0
A0
A0
40
ENDCHAR
STARTCHAR p
ENCODING 112
SWIDTH 500 0
DWIDTH 4 0
BBX 4 6 0 -1
BITMAP
E0
50
50
50
60
40
ENDCHAR
STARTCHAR q
ENCODING 113
SWIDTH 500 0
DWIDTH 4 0
BBX 3 6 1 -1
BITMAP
60
A0
A0
A0
60
20
ENDCHAR
STARTCHAR r
ENCODING 114
SWIDTH 375 0
DWIDTH 3 0
BBX 2 5 1 0
BITMAP
C0
80
80
80
80
ENDCHAR
STARTCHAR s
ENCODING 115
SWIDTH 375 0
DWIDTH 3 0
BBX 2 5 1 0
BITMAP
C0
80
40
40
C0
ENDCHAR
STARTCHAR t
ENCODING 116
SWIDTH 375 0
DWIDTH 3 0
BBX 2 6 1 0
BITMAP
80
C0
80
80
80
40
ENDCHAR
STARTCHAR u
ENCODING 117
SWIDTH 500 0
DWIDTH 4 0
BBX 3 5 1 0
BITMAP
A0
A0
A0
A0
60
ENDCHAR
STARTCHAR v
ENCODING 118
SWIDTH 500 0
DWIDTH 4 0
BBX 3 5 1 0
BITMAP
A0
A0
A0
40
40
ENDCHAR
STARTCHAR w
ENCODING 119
SWIDTH 750 0
DWIDTH 6 0
BBX 5 5 1 0
BITMAP
A8
A8
A8
50
50
ENDCHAR
STARTCHAR x
ENCODING 120
SWIDTH 500 0
DWIDTH 4 0
BBX 3 5 1 0
BITMAP
A0
A0
40
A0
A0
ENDCHAR
STARTCHAR y
ENCODING 121
SWIDTH 500 0
DWIDTH 4 0
BBX 3 6 1 -1
BITMAP
A0
A0
A0
40
40
80
ENDCHAR
STARTCHAR z
ENCODING 122
SWIDTH 375 0
DWIDTH 3 0
BBX 2 5 1 0
BITMAP
C0
40
80
80
C0
ENDCHAR
STARTCHAR braceleft
ENCODING 123
SWIDTH 500 0
DWIDTH 4 0
BBX 3 8 1 -1
BITMAP
20
40
40
80
40
40
40
20
ENDCHAR
STARTCHAR bar
ENCODING 124
SWIDTH 375 0
DWIDTH 3 0
BBX 1 8 1 -1
BITMAP
80
80
80
80
80
80
80
80
ENDCHAR
STARTCHAR braceright
ENCODING 125
SWIDTH 500 0
DWIDTH 4 0
BBX 3 8 1 -1
BITMAP
80
40
40
20
40
40
40
80
ENDCHAR
STARTCHAR asciitilde
ENCODING 126
SWIDTH 750 0
DWIDTH 6 0
BBX 5 3 1 4
BITMAP
48
A8
90
ENDCHAR
STARTCHAR bullet
ENCODING 149
SWIDTH 500 0
DWIDTH 4 0
BBX 3 4 1 1
BITMAP
40
E0
E0
40
ENDCHAR
STARTCHAR space
ENCODING 154
SWIDTH 250 0
DWIDTH 2 0
BBX 0 0 0 0
BITMAP
ENDCHAR
STARTCHAR degree
ENCODING 156
SWIDTH 500 0
DWIDTH 4 0
BBX 3 3 1 4
BITMAP
40
A0
40
ENDCHAR
STARTCHAR twosuperior
ENCODING 157
SWIDTH 500 0
DWIDTH 4 0
BBX 3 4 1 3
BITMAP
C0
20
40
E0
ENDCHAR
STARTCHAR periodcentered
ENCODING 158
SWIDTH 375 0
DWIDTH 3 0
BBX 1 1 1 3
BITMAP
80
ENDCHAR
STARTCHAR afii10071
ENCODING 163
SWIDTH 375 0
DWIDTH 3 0
BBX 3 6 1 0
BITMAP
A0
40
A0
C0
80
60
ENDCHAR
STARTCHAR afii10023
ENCODING 179
SWIDTH 500 0
DWIDTH 4 0
BBX 4 9 1 0
BITMAP
90
00
F0
90
80
E0
80
90
F0
ENDCHAR
STARTCHAR copyright
ENCODING 191
SWIDTH 875 0
DWIDTH 7 0
BBX 6 7 1 0
BITMAP
30
48
B4
A4
B4
48
30
ENDCHAR
STARTCHAR afii10096
ENCODING 192
SWIDTH 750 0
DWIDTH 6 0
BBX 5 5 1 0
BITMAP
90
A8
E8
A8
90
ENDCHAR
STARTCHAR afii10065
ENCODING 193
SWIDTH 500 0
DWIDTH 4 0
BBX 3 5 1 0
BITMAP
C0
20
60
A0
E0
ENDCHAR
STARTCHAR afii10066
ENCODING 194
SWIDTH 500 0
DWIDTH 4 0
BBX 3 6 1 0
BITMAP
60
80
C0
A0
A0
C0
ENDCHAR
STARTCHAR afii10088
ENCODING 195
SWIDTH 750 0
DWIDTH 6 0
BBX 5 6 1 -1
BITMAP
D8
90
90
90
F8
08
ENDCHAR
STARTCHAR afii10069
ENCODING 196
SWIDTH 750 0
DWIDTH 6 0
BBX 6 6 0 -1
BITMAP
78
28
28
48
FC
84
ENDCHAR
STARTCHAR afii10070
ENCODING 197
SWIDTH 375 0
DWIDTH 3 0
BBX 3 5 1 0
BITMAP
40
A0
E0
80
60
ENDCHAR
STARTCHAR afii10086
ENCODING 198
SWIDTH 750 0
DWIDTH 6 0
BBX 5 5 1 0
BITMAP
70
A8
A8
70
20
ENDCHAR
STARTCHAR afii10068
ENCODING 199
SWIDTH 500 0
DWIDTH 4 0
BBX 3 5 1 0
BITMAP
E0
A0
80
80
80
ENDCHAR
STARTCHAR afii10087
ENCODING 200
SWIDTH 500 0
DWIDTH 4 0
BBX 3 5 1 0
BITMAP
A0
A0
40
A0
A0
ENDCHAR
STARTCHAR afii10074
ENCODING 201
SWIDTH 625 0
DWIDTH 5 0
BBX 4 5 1 0
BITMAP
90
90
B0
D0
90
ENDCHAR
STARTCHAR afii10075
ENCODING 202
SWIDTH 625 0
DWIDTH 5 0
BBX 4 7 1 0
BITMAP
60
00
90
90
B0
D0
90
ENDCHAR
STARTCHAR afii10076
ENCODING 203
SWIDTH 625 0
DWIDTH 5 0
BBX 4 5 1 0
BITMAP
90
A0
C0
A0
90
ENDCHAR
STARTCHAR afii10077
ENCODING 204
SWIDTH 500 0
DWIDTH 4 0
BBX 4 5 0 0
BITMAP
30
50
50
50
90
ENDCHAR
STARTCHAR afii10078
ENCODING 205
SWIDTH 750 0
DWIDTH 6 0
BBX 5 5 1 0
BITMAP
88
D8
A8
A8
88
ENDCHAR
STARTCHAR afii10079
ENCODING 206
SWIDTH 500 0
DWIDTH 4 0
BBX 3 5 1 0
BITMAP
A0
A0
E0
A0
A0
ENDCHAR
STARTCHAR afii10080
ENCODING 207
SWIDTH 500 0
DWIDTH 4 0
BBX 3 5 1 0
BITMAP
40
A0
A0
A0
40
ENDCHAR
STARTCHAR afii10081
ENCODING 208
SWIDTH 500 0
DWIDTH 4 0
BBX 3 5 1 0
BITMAP
E0
A0
A0
A0
A0
ENDCHAR
STARTCHAR afii10097
ENCODING 209
SWIDTH 625 0
DWIDTH 5 0
BBX 4 5 1 0
BITMAP
70
90
70
50
90
ENDCHAR
STARTCHAR afii10082
ENCODING 210
SWIDTH 500 0
DWIDTH 4 0
BBX 3 5 1 0
BITMAP
C0
A0
A0
C0
80
ENDCHAR
STARTCHAR afii10083
ENCODING 211
SWIDTH 500 0
DWIDTH 4 0
BBX 3 5 1 0
BITMAP
40
A0
80
A0
40
ENDCHAR
STARTCHAR afii10084
ENCODING 212
SWIDTH 500 0
DWIDTH 4 0
BBX 3 5 1 0
BITMAP
E0
40
40
40
40
ENDCHAR
STARTCHAR afii10085
ENCODING 213
SWIDTH 500 0
DWIDTH 4 0
BBX 3 5 1 0
BITMAP
A0
A0
60
20
C0
ENDCHAR
STARTCHAR afii10072
ENCODING 214
SWIDTH 750 0
DWIDTH 6 0
BBX 5 5 1 0
BITMAP
A8
A8
70
A8
A8
ENDCHAR
STARTCHAR afii10067
ENCODING 215
SWIDTH 500 0
DWIDTH 4 0
BBX 3 5 1 0
BITMAP
C0
A0
C0
A0
C0
ENDCHAR
STARTCHAR afii10094
ENCODING 216
SWIDTH 500 0
DWIDTH 4 0
BBX 3 5 1 0
BITMAP
80
80
C0
A0
E0
ENDCHAR
STARTCHAR afii10093
ENCODING 217
SWIDTH 750 0
DWIDTH 6 0
BBX 5 5 1 0
BITMAP
88
C8
A8
A8
C8
ENDCHAR
STARTCHAR afii10073
ENCODING 218
SWIDTH 500 0
DWIDTH 4 0
BBX 3 5 1 0
BITMAP
C0
20
40
20
C0
ENDCHAR
STARTCHAR afii10090
ENCODING 219
SWIDTH 750 0
DWIDTH 6 0
BBX 5 5 1 0
BITMAP
A8
A8
A8
A8
F8
ENDCHAR
STARTCHAR afii10095
ENCODING 220
SWIDTH 500 0
DWIDTH 4 0
BBX 3 5 1 0
BITMAP
C0
20
60
20
C0
ENDCHAR
STARTCHAR afii10091
ENCODING 221
SWIDTH 750 0
DWIDTH 6 0
BBX 5 6 1 -1
BITMAP
A8
A8
A8
A8
F8
08
ENDCHAR
STARTCHAR afii10089
ENCODING 222
SWIDTH 625 0
DWIDTH 5 0
BBX 4 5 1 0
BITMAP
90
90
70
10
10
ENDCHAR
STARTCHAR afii10092
ENCODING 223
SWIDTH 750 0
DWIDTH 6 0
BBX 5 5 1 0
BITMAP
E0
A0
30
28
70
ENDCHAR
STARTCHAR afii10048
ENCODING 224
SWIDTH 875 0
DWIDTH 7 0
BBX 6 7 1 0
BITMAP
C8
54
54
74
54
54
C8
ENDCHAR
STARTCHAR afii10017
ENCODING 225
SWIDTH 750 0
DWIDTH 6 0
BBX 5 7 1 0
BITMAP
20
20
50
50
70
88
88
ENDCHAR
STARTCHAR afii10018
ENCODING 226
SWIDTH 750 0
DWIDTH 6 0
BBX 5 7 1 0
BITMAP
F8
48
40
70
48
48
F0
ENDCHAR
STARTCHAR afii10040
ENCODING 227
SWIDTH 625 0
DWIDTH 5 0
BBX 4 8 1 -1
BITMAP
90
90
90
90
90
90
F0
10
ENDCHAR
STARTCHAR afii10021
ENCODING 228
SWIDTH 750 0
DWIDTH 6 0
BBX 5 8 1 -1
BITMAP
F0
50
50
50
50
50
F8
88
ENDCHAR
STARTCHAR afii10022
ENCODING 229
SWIDTH 625 0
DWIDTH 5 0
BBX 4 7 1 0
BITMAP
F0
90
80
E0
80
90
F0
ENDCHAR
STARTCHAR afii10038
ENCODING 230
SWIDTH 750 0
DWIDTH 6 0
BBX 5 7 1 0
BITMAP
70
A8
A8
A8
70
20
70
ENDCHAR
STARTCHAR afii10020
ENCODING 231
SWIDTH 750 0
DWIDTH 6 0
BBX 5 7 1 0
BITMAP
F8
48
40
40
40
40
E0
ENDCHAR
STARTCHAR afii10039
ENCODING 232
SWIDTH 750 0
DWIDTH 6 0
BBX 5 7 1 0
BITMAP
D8
50
50
20
50
50
D8
ENDCHAR
STARTCHAR afii10026
ENCODING 233
SWIDTH 625 0
DWIDTH 5 0
BBX 4 7 1 0
BITMAP
90
90
90
B0
D0
90
90
ENDCHAR
STARTCHAR afii10027
ENCODING 234
SWIDTH 625 0
DWIDTH 5 0
BBX 4 9 1 0
BITMAP
60
00
90
90
90
B0
D0
90
90
ENDCHAR
STARTCHAR afii10028
ENCODING 235
SWIDTH 625 0
DWIDTH 5 0
BBX 4 7 1 0
BITMAP
90
A0
A0
C0
A0
B0
90
ENDCHAR
STARTCHAR afii10029
ENCODING 236
SWIDTH 750 0
DWIDTH 6 0
BBX 5 7 1 0
BITMAP
78
48
48
48
48
48
98
ENDCHAR
STARTCHAR afii10030
ENCODING 237
SWIDTH 875 0
DWIDTH 7 0
BBX 7 7 0 0
BITMAP
C6
6C
54
54
54
44
EE
ENDCHAR
STARTCHAR afii10031
ENCODING 238
SWIDTH 625 0
DWIDTH 5 0
BBX 4 7 1 0
BITMAP
90
90
90
F0
90
90
90
ENDCHAR
STARTCHAR afii10032
ENCODING 239
SWIDTH 625 0
DWIDTH 5 0
BBX 4 7 1 0
BITMAP
60
90
90
90
90
90
60
ENDCHAR
STARTCHAR afii10033
ENCODING 240
SWIDTH 625 0
DWIDTH 5 0
BBX 4 7 1 0
BITMAP
F0
90
90
90
90
90
90
ENDCHAR
STARTCHAR afii10049
ENCODING 241
SWIDTH 875 0
DWIDTH 7 0
BBX 6 7 1 0
BITMAP
3C
48
48
38
28
48
CC
ENDCHAR
STARTCHAR afii10034
ENCODING 242
SWIDTH 625 0
DWIDTH 5 0
BBX 5 7 0 0
BITMAP
F0
48
48
70
40
40
E0
ENDCHAR
STARTCHAR afii10035
ENCODING 243
SWIDTH 625 0
DWIDTH 5 0
BBX 4 7 1 0
BITMAP
70
90
80
80
80
90
70
ENDCHAR
STARTCHAR afii10036
ENCODING 244
SWIDTH 500 0
DWIDTH 4 0
BBX 3 7 1 0
BITMAP
E0
40
40
40
40
40
40
ENDCHAR
STARTCHAR afii10037
ENCODING 245
SWIDTH 750 0
DWIDTH 6 0
BBX 5 7 1 0
BITMAP
88
88
50
50
20
20
C0
ENDCHAR
STARTCHAR afii10024
ENCODING 246
SWIDTH 875 0
DWIDTH 7 0
BBX 7 7 0 0
BITMAP
D6
54
54
38
54
54
D6
ENDCHAR
STARTCHAR afii10019
ENCODING 247
SWIDTH 625 0
DWIDTH 5 0
BBX 4 7 1 0
BITMAP
E0
90
90
E0
90
90
E0
ENDCHAR
STARTCHAR afii10046
ENCODING 248
SWIDTH 750 0
DWIDTH 6 0
BBX 5 7 1 0
BITMAP
E0
40
40
70
48
48
F0
ENDCHAR
STARTCHAR afii10045
ENCODING 249
SWIDTH 875 0
DWIDTH 7 0
BBX 7 7 0 0
BITMAP
C6
42
42
72
4A
4A
F6
ENDCHAR
STARTCHAR afii10025
ENCODING 250
SWIDTH 625 0
DWIDTH 5 0
BBX 4 7 1 0
BITMAP
E0
90
10
20
10
90
E0
ENDCHAR
STARTCHAR afii10042
ENCODING 251
SWIDTH 875 0
DWIDTH 7 0
BBX 6 7 1 0
BITMAP
CC
44
54
54
54
54
FC
ENDCHAR
STARTCHAR afii10047
ENCODING 252
SWIDTH 750 0
DWIDTH 6 0
BBX 5 7 1 0
BITMAP
F0
88
08
38
08
88
70
ENDCHAR
STARTCHAR afii10043
ENCODING 253
SWIDTH 875 0
DWIDTH 7 0
BBX 7 8 0 -1
BITMAP
CE
44
54
54
54
54
FE
02
ENDCHAR
STARTCHAR afii10041
ENCODING 254
SWIDTH 750 0
DWIDTH 6 0
BBX 6 7 0 0
BITMAP
EC
48
48
38
08
08
1C
ENDCHAR
STARTCHAR afii10044
ENCODING 255
SWIDTH 625 0
DWIDTH 5 0
BBX 5 7 0 0
BITMAP
E0
A0
30
28
28
28
30
ENDCHAR
ENDFONT
